<svg xmlns="http://www.w3.org/2000/svg" version="1.1" xmlns:xlink="http://www.w3.org/1999/xlink" viewBox="0 0 200 200"><rect width="200" height="200" fill="url('#gradient')"></rect><defs><linearGradient id="gradient" gradientTransform="rotate(360 0.5 0.5)"><stop offset="0%" stop-color="#ff7b42"></stop><stop offset="100%" stop-color="#ff2a40"></stop></linearGradient></defs><g><g fill="#ffffff" transform="matrix(3.056716417910448,0,0,3.056716417910448,22.955385024956797,116.4004920874069)" stroke="#ffffff" stroke-width="0.5"><path d="M6.46-2.97L6.46-2.97Q6.46-3.39 6.02-3.64Q5.58-3.90 4.35-4.17Q3.12-4.44 2.31-4.89Q1.51-5.33 1.09-5.97Q0.67-6.60 0.67-7.42L0.67-7.42Q0.67-8.88 1.88-9.82Q3.08-10.76 5.02-10.76L5.02-10.76Q7.11-10.76 8.38-9.81Q9.65-8.87 9.65-7.32L9.65-7.32L6.35-7.32Q6.35-8.59 5.01-8.59L5.01-8.59Q4.49-8.59 4.14-8.31Q3.79-8.02 3.79-7.59L3.79-7.59Q3.79-7.15 4.22-6.88Q4.65-6.60 5.59-6.43Q6.53-6.25 7.25-6.01L7.25-6.01Q9.63-5.19 9.63-3.07L9.63-3.07Q9.63-1.62 8.34-0.71Q7.06 0.20 5.02 0.20L5.02 0.20Q3.66 0.20 2.60-0.29Q1.53-0.78 0.94-1.62Q0.34-2.46 0.34-3.39L0.34-3.39L3.42-3.39Q3.44-2.66 3.91-2.32Q4.38-1.98 5.11-1.98L5.11-1.98Q5.78-1.98 6.12-2.26Q6.46-2.53 6.46-2.97ZM11.71-13.19L15-13.19L15-10.57L16.74-10.57L16.74-8.28L15-8.28L15-3.45Q15-2.85 15.21-2.62Q15.43-2.38 16.06-2.38L16.06-2.38Q16.55-2.38 16.88-2.44L16.88-2.44L16.88-0.09Q16.00 0.20 15.03 0.20L15.03 0.20Q13.33 0.20 12.52-0.61Q11.71-1.41 11.71-3.04L11.71-3.04L11.71-8.28L10.36-8.28L10.36-10.57L11.71-10.57L11.71-13.19ZM24.42 0L24.33-1.14Q23.28 0.20 21.50 0.20L21.50 0.20Q19.77 0.20 18.87-0.82Q17.98-1.83 17.98-3.72L17.98-3.72L17.98-10.57L21.27-10.57L21.27-3.70Q21.27-2.34 22.59-2.34L22.59-2.34Q23.72-2.34 24.20-3.15L24.20-3.15L24.20-10.57L27.51-10.57L27.51 0L24.42 0ZM28.90-5.36L28.90-5.36Q28.90-7.87 29.98-9.32Q31.06-10.76 33.01-10.76L33.01-10.76Q34.42-10.76 35.39-9.65L35.39-9.65L35.39-15L38.69-15L38.69 0L35.73 0L35.57-1.13Q34.55 0.20 32.99 0.20L32.99 0.20Q31.10 0.20 30-1.25Q28.90-2.70 28.90-5.36ZM32.20-5.76L32.19-5.16Q32.19-2.34 33.83-2.34L33.83-2.34Q34.92-2.34 35.39-3.26L35.39-3.26L35.39-7.29Q34.94-8.22 33.85-8.22L33.85-8.22Q32.32-8.22 32.20-5.76L32.20-5.76ZM43.12-10.57L44.79-4.61L46.54-10.57L50.07-10.57L45.76 1.77L45.58 2.22Q44.66 4.27 42.33 4.27L42.33 4.27Q41.69 4.27 40.98 4.07L40.98 4.07L40.98 1.72L41.41 1.72Q42.10 1.72 42.47 1.52Q42.83 1.32 43.01 0.80L43.01 0.80L43.27 0.10L39.60-10.57L43.12-10.57Z"></path></g></g></svg>